<?xml version="1.0" encoding="UTF-8" standalone="no"?>
<!-- Created with Inkscape (http://www.inkscape.org/) -->

<svg
   xmlns:dc="http://purl.org/dc/elements/1.1/"
   xmlns:cc="http://creativecommons.org/ns#"
   xmlns:rdf="http://www.w3.org/1999/02/22-rdf-syntax-ns#"
   xmlns:svg="http://www.w3.org/2000/svg"
   xmlns="http://www.w3.org/2000/svg"
   xmlns:xlink="http://www.w3.org/1999/xlink"
   xmlns:sodipodi="http://sodipodi.sourceforge.net/DTD/sodipodi-0.dtd"
   xmlns:inkscape="http://www.inkscape.org/namespaces/inkscape"
   width="565px"
   height="800px"
   viewBox="0 0 744.09448819 1052.3622047"
   id="svg2"
   version="1.1"
   inkscape:version="0.91 r13725"
   sodipodi:docname="chino-bezier-angry.svg">
  <defs
     id="defs4" />
  <sodipodi:namedview
     id="base"
     pagecolor="#ffffdc"
     bordercolor="#666666"
     borderopacity="1.0"
     inkscape:pageopacity="0"
     inkscape:pageshadow="2"
     inkscape:zoom="1.7646018"
     inkscape:cx="339.17001"
     inkscape:cy="419.31521"
     inkscape:document-units="px"
     inkscape:current-layer="layer1"
     showgrid="false"
     inkscape:window-width="1481"
     inkscape:window-height="1362"
     inkscape:window-x="717"
     inkscape:window-y="0"
     inkscape:window-maximized="0"
     showguides="false"
     inkscape:snap-to-guides="false"
     inkscape:snap-grids="false" />
  <metadata
     id="metadata7">
    <rdf:RDF>
      <cc:Work
         rdf:about="">
        <dc:format>image/svg+xml</dc:format>
        <dc:type
           rdf:resource="http://purl.org/dc/dcmitype/StillImage" />
        <dc:title />
      </cc:Work>
    </rdf:RDF>
  </metadata>
  <g
     inkscape:label="Layer 1"
     inkscape:groupmode="layer"
     id="layer1">
    <path
       style="fill:none;fill-rule:evenodd;stroke:#373bd7;stroke-width:2.63396287;stroke-linecap:butt;stroke-linejoin:miter;stroke-miterlimit:4;stroke-dasharray:none;stroke-opacity:1"
       d="m 114.26582,457.52814 c 80.12553,137.19049 20.11795,374.23318 -28.233657,555.19196"
       id="hair-back-1"
       inkscape:connector-curvature="0"
       inkscape:label="hair-back-1"
       sodipodi:nodetypes="cc" />
    <path
       style="fill:#fdf3e9;fill-opacity:1;fill-rule:evenodd;stroke:#000000;stroke-width:2;stroke-linecap:butt;stroke-linejoin:miter;stroke-miterlimit:4;stroke-dasharray:none;stroke-opacity:1"
       d="m 311.23954,680.98479 c 0,0 2.16846,17.60822 2.34608,26.86751 -5.90143,1.13561 -160.82127,31.31026 -174.03446,73.35226 0,0 178.64806,98.32977 465.90789,3.21271 -13.092,-48.06773 -174.7161,-76.77847 -174.7161,-76.77847 l 0.21884,0 c 0.51365,-8.36495 0.36186,-29.32713 0.36186,-29.32713 z"
       id="shoulder"
       inkscape:connector-curvature="0"
       sodipodi:nodetypes="cccccccc" />
    <path
       sodipodi:nodetypes="cc"
       inkscape:label="hair-back-2"
       inkscape:connector-curvature="0"
       id="hair-back-2"
       d="m 619.49719,458.84512 c -69.2639,135.88231 -3.97448,379.09194 41.06971,560.77558"
       style="fill:none;fill-rule:evenodd;stroke:#373bd7;stroke-width:2.63396287;stroke-linecap:butt;stroke-linejoin:miter;stroke-miterlimit:4;stroke-dasharray:none;stroke-opacity:1" />
    <g
       id="dress"
       inkscape:label="dress"
       style="stroke-width:2;stroke-miterlimit:4;stroke-dasharray:none"
       transform="translate(0,-2.6339628)">
      <path
         sodipodi:nodetypes="ccscccscc"
         inkscape:connector-curvature="0"
         id="dress-outer-path"
         d="m 669.62333,1055.6851 -4.25827,-53.0847 c 0,0 -27.9767,-208.03067 -42.25101,-227.58905 -14.27432,-19.55841 -95.05194,-40.8946 -95.05194,-40.8946 0,0 -54.92118,74.49022 -155.67927,75.25732 -100.75712,-0.76787 -155.67927,-75.25732 -155.67927,-75.25732 0,0 -80.77572,21.33619 -95.05004,40.8946 -14.27431,19.55838 -42.252925,227.58905 -42.252925,227.58905 l -4.10754,54.2348"
         style="fill:#ffffff;fill-opacity:1;fill-rule:evenodd;stroke:#ffbe00;stroke-width:2;stroke-linecap:butt;stroke-linejoin:miter;stroke-miterlimit:4;stroke-dasharray:none;stroke-opacity:1"
         inkscape:label="dress-outer-path" />
      <path
         inkscape:connector-curvature="0"
         id="path4183"
         d="m 173.63571,876.04888 -5.74765,51.39061 c -1.71016,40.59304 -3.58519,72.08291 1.41101,127.29831"
         style="fill:none;fill-rule:evenodd;stroke:#ffbe00;stroke-width:2;stroke-linecap:butt;stroke-linejoin:miter;stroke-miterlimit:4;stroke-dasharray:none;stroke-opacity:1"
         sodipodi:nodetypes="ccc" />
      <use
         height="100%"
         width="100%"
         transform="matrix(-1,0,0,1,737.02763,0)"
         id="use4185"
         xlink:href="#path4183"
         y="0"
         x="0"
         style="stroke-width:2;stroke-miterlimit:4;stroke-dasharray:none" />
    </g>
    <path
       style="fill:none;fill-rule:evenodd;stroke:#000000;stroke-width:2;stroke-linecap:butt;stroke-linejoin:miter;stroke-miterlimit:4;stroke-dasharray:none;stroke-opacity:0.44230772"
       d="m 271.78728,756.53229 c 0,0 53.87394,6.12203 62.4448,13.46848 8.57085,7.34645 9.42496,6.79101 9.42496,6.79101"
       id="collarbone-l"
       inkscape:connector-curvature="0"
       sodipodi:nodetypes="csc"
       inkscape:label="collarbone-l" />
    <path
       sodipodi:nodetypes="csc"
       inkscape:connector-curvature="0"
       id="collarbone-r"
       d="m 472.90379,756.53229 c 0,0 -53.87394,6.12203 -62.4448,13.46848 -8.57085,7.34645 -9.42496,6.79101 -9.42496,6.79101"
       style="fill:none;fill-rule:evenodd;stroke:#000000;stroke-width:2;stroke-linecap:butt;stroke-linejoin:miter;stroke-miterlimit:4;stroke-dasharray:none;stroke-opacity:0.44230772"
       inkscape:label="collarbone-r" />
    <path
       style="fill:none;fill-opacity:1;fill-rule:evenodd;stroke:#000000;stroke-width:1.89780879;stroke-linecap:butt;stroke-linejoin:miter;stroke-miterlimit:4;stroke-dasharray:none;stroke-opacity:1"
       d="m 434.80209,721.14579 -2.77077,-6.20365 c -2.26855,-5.07921 -0.72159,-35.19008 -0.72159,-35.19008"
       id="neck-r"
       inkscape:label="neck-r"
       inkscape:connector-curvature="0"
       sodipodi:nodetypes="csc" />
    <ellipse
       style="fill:none;fill-opacity:1;stroke:#000000;stroke-width:1.31698143;stroke-miterlimit:4;stroke-dasharray:none;stroke-opacity:0.29936308"
       id="face-shadow"
       cx="368.99399"
       cy="703.16644"
       rx="106.81707"
       ry="55.062561"
       inkscape:label="face-shadow" />
    <path
       style="fill:none;fill-opacity:1;fill-rule:evenodd;stroke:#000000;stroke-width:1.87853682;stroke-linecap:butt;stroke-linejoin:miter;stroke-miterlimit:4;stroke-dasharray:none;stroke-opacity:1"
       d="m 310.83871,681.82278 c 0,0 4.92114,31.13525 1.32473,35.47957 l -3.53225,4.26681"
       id="neck-l"
       inkscape:label="neck-l"
       inkscape:connector-curvature="0"
       sodipodi:nodetypes="csc" />
    <path
       style="fill:#fdf3e9;fill-opacity:1;fill-rule:evenodd;stroke:#000000;stroke-width:1.95999062;stroke-linecap:butt;stroke-linejoin:miter;stroke-miterlimit:4;stroke-dasharray:none;stroke-opacity:1"
       d="m 368.99324,182.12555 4.9e-4,0.0283 c -273.658563,2.68814 -216.7093,297.04897 -216.7093,297.04897 0,0 35.75755,132.88907 56.79371,157.71579 21.75863,25.67939 113.4906,62.84789 160.8587,65.1134 l -3.8e-4,0.031 c 0.0754,-0.003 0.15675,-0.0122 0.23221,-0.0152 0.0747,0.003 0.15527,0.0122 0.22973,0.0154 l 3.8e-4,-0.031 c 47.36804,-2.2654 139.10249,-39.43399 160.86118,-65.1134 21.03617,-24.82672 56.79124,-157.7158 56.79124,-157.7158 0,0 56.94926,-294.36083 -216.70882,-297.04898 l -4.9e-4,-0.0283 c -0.3957,0.001 -0.78143,0.0102 -1.17579,0.0129 -0.39352,-0.003 -0.77844,-0.0114 -1.17332,-0.0129 z"
       id="face"
       inkscape:label="face"
       inkscape:connector-curvature="0" />
    <path
       style="fill:#ffffff;fill-opacity:1;fill-rule:evenodd;stroke:#000000;stroke-width:2;stroke-linecap:butt;stroke-linejoin:miter;stroke-miterlimit:4;stroke-dasharray:none;stroke-opacity:1"
       d="m 281.81823,440.09717 c 0,0 15.61339,63.93648 -4.45807,103.75519 -14.17468,8.68971 -40.53494,7.49957 -40.53494,7.49957 -28.73483,-2.98649 -57.97702,-26.55889 -58.68635,-51.56888 6.54511,-41.20432 44.72305,-54.24656 103.67936,-59.68588 z"
       id="sclera-l"
       inkscape:connector-curvature="0"
       sodipodi:nodetypes="ccccc"
       inkscape:label="sclera-l" />
    <g
       id="ears"
       inkscape:label="#g4183"
       style="fill:#fdf3e9;fill-opacity:1"
       transform="translate(5.0797222,0.15711482)">
      <path
         inkscape:label="ear-l"
         sodipodi:nodetypes="cscc"
         inkscape:connector-curvature="0"
         id="ear-l"
         d="m 159.58933,504.70736 c 0,0 -20.02554,-18.98157 -44.36699,11.41121 -18.303943,22.85434 11.43997,55.59166 11.43997,55.59166 0,0 8.21754,17.91287 55.69341,21.61898"
         style="fill:#fdf3e9;fill-opacity:1;fill-rule:evenodd;stroke:#000000;stroke-width:2;stroke-linecap:butt;stroke-linejoin:miter;stroke-miterlimit:4;stroke-dasharray:none;stroke-opacity:1" />
      <path
         style="fill:#fdf3e9;fill-opacity:1;fill-rule:evenodd;stroke:#000000;stroke-width:2;stroke-linecap:butt;stroke-linejoin:miter;stroke-miterlimit:4;stroke-dasharray:none;stroke-opacity:1"
         d="m 570.72561,504.70736 c 0,0 20.02554,-18.98157 44.36699,11.41121 18.30395,22.85434 -11.43997,55.59166 -11.43997,55.59166 0,0 -8.21754,17.91287 -55.69341,21.61898"
         id="ear-r"
         inkscape:connector-curvature="0"
         sodipodi:nodetypes="cscc"
         inkscape:label="ear-r" />
    </g>
    <path
       style="fill:none;fill-rule:evenodd;stroke:#000000;stroke-width:1.46191895;stroke-linecap:butt;stroke-linejoin:miter;stroke-miterlimit:4;stroke-dasharray:none;stroke-opacity:1"
       d="m 363.21546,632.90261 c 0,0 5.26645,-6.88022 9.58095,-6.81092 4.02172,0.0646 8.96134,7.25948 8.96134,7.25948"
       id="mouth"
       inkscape:connector-curvature="0"
       sodipodi:nodetypes="csc" />
    <path
       style="fill:none;fill-rule:evenodd;stroke:#000000;stroke-width:2;stroke-linecap:butt;stroke-linejoin:miter;stroke-miterlimit:4;stroke-dasharray:none;stroke-opacity:0.64102568"
       d="m 372.18696,566.65135 -0.25433,3.65251"
       id="nose"
       inkscape:connector-curvature="0"
       sodipodi:nodetypes="cc"
       inkscape:label="nose" />
    <path
       inkscape:connector-curvature="0"
       id="hair-c-1"
       d="m 373.28798,81.371284 c -21.27686,94.308226 -74.0052,232.718296 8.13243,418.951106"
       style="fill:none;fill-opacity:1;fill-rule:evenodd;stroke:#3ff9b5;stroke-width:2.63396287;stroke-linecap:butt;stroke-linejoin:miter;stroke-miterlimit:4;stroke-dasharray:none;stroke-opacity:1"
       inkscape:label="hair-c-1"
       sodipodi:nodetypes="cc" />
    <path
       inkscape:connector-curvature="0"
       id="hair-l-5"
       d="M 369.02444,80.770838 C 348.32264,96.297192 206.23615,254.92013 318.46378,459.85753"
       style="fill:none;fill-opacity:1;fill-rule:evenodd;stroke:#3ef9b5;stroke-width:2.63396287;stroke-linecap:butt;stroke-linejoin:miter;stroke-miterlimit:4;stroke-dasharray:none;stroke-opacity:1"
       inkscape:label="hair-l-5"
       sodipodi:nodetypes="cc" />
    <path
       inkscape:connector-curvature="0"
       id="hair-l-4"
       d="M 373.49727,77.147559 C 302.27021,78.584534 150.69151,204.57478 241.34518,426.93314"
       style="fill:none;fill-opacity:1;fill-rule:evenodd;stroke:#3ef9b5;stroke-width:2.63396287;stroke-linecap:butt;stroke-linejoin:miter;stroke-miterlimit:4;stroke-dasharray:none;stroke-opacity:1"
       inkscape:label="hair-l-4"
       sodipodi:nodetypes="cc" />
    <path
       inkscape:connector-curvature="0"
       id="hair-l-3"
       d="M 375.89203,72.586794 C 291.87417,87.725054 151.74667,154.90349 189.71308,453.37863"
       style="fill:none;fill-opacity:1;fill-rule:evenodd;stroke:#3ef9b5;stroke-width:2.63396287;stroke-linecap:butt;stroke-linejoin:miter;stroke-miterlimit:4;stroke-dasharray:none;stroke-opacity:1"
       sodipodi:nodetypes="cc"
       inkscape:label="hair-l-3" />
    <path
       inkscape:connector-curvature="0"
       id="hair-r-6"
       d="M 377.85793,78.093878 C 425.33196,133.91461 481.30915,172.23572 429.67024,427.0816"
       style="fill:none;fill-opacity:1;fill-rule:evenodd;stroke:#3ef9b5;stroke-width:2.63396287;stroke-linecap:butt;stroke-linejoin:miter;stroke-miterlimit:4;stroke-dasharray:none;stroke-opacity:1"
       inkscape:label="hair-r-6"
       sodipodi:nodetypes="cc" />
    <path
       inkscape:connector-curvature="0"
       id="hair-r-5"
       d="M 387.17433,74.840905 C 440.99786,94.229143 544.95931,225.05859 463.30219,420.57563"
       style="fill:none;fill-opacity:1;fill-rule:evenodd;stroke:#3ef9b5;stroke-width:2.63396287;stroke-linecap:butt;stroke-linejoin:miter;stroke-miterlimit:4;stroke-dasharray:none;stroke-opacity:1"
       inkscape:label="hair-r-5"
       sodipodi:nodetypes="cc" />
    <path
       inkscape:connector-curvature="0"
       id="hair-r-4"
       d="M 379.88897,77.757022 C 478.0153,75.936112 571.98667,195.15599 512.75651,426.32613"
       style="fill:none;fill-opacity:1;fill-rule:evenodd;stroke:#3ef9b5;stroke-width:2.63396287;stroke-linecap:butt;stroke-linejoin:miter;stroke-miterlimit:4;stroke-dasharray:none;stroke-opacity:1"
       inkscape:label="hair-r-4"
       sodipodi:nodetypes="cc" />
    <path
       inkscape:connector-curvature="0"
       id="hair-r-3"
       d="M 356.30493,68.067863 C 501.68112,83.471613 584.64377,212.33586 549.39934,455.04787"
       style="fill:none;fill-opacity:1;fill-rule:evenodd;stroke:#3ef9b5;stroke-width:2.63396287;stroke-linecap:butt;stroke-linejoin:miter;stroke-miterlimit:4;stroke-dasharray:none;stroke-opacity:1"
       inkscape:label="hair-r-3"
       sodipodi:nodetypes="cc" />
    <path
       style="fill:#3c93a9;fill-opacity:0.15568866;stroke:#000000;stroke-width:1.98001373;stroke-miterlimit:4;stroke-dasharray:none;stroke-opacity:0.64102568"
       d="m 283.82336,491.76714 c 4.48378,36.5567 -10.07984,54.58442 -31.8507,56.49471 -21.77085,1.91029 -40.80501,-9.01611 -45.70569,-43.31468 -4.988,-34.90974 14.52971,-59.38657 38.46975,-62.75702 24.5764,-3.46002 34.50975,12.26119 39.08664,49.57699 z"
       id="iris-l"
       inkscape:connector-curvature="0"
       sodipodi:nodetypes="sssss" />
    <ellipse
       style="fill:none;fill-opacity:1;stroke:#ff4600;stroke-width:1.13475668;stroke-miterlimit:4;stroke-dasharray:none;stroke-opacity:1"
       id="red-cheek-l"
       cx="212.6779"
       cy="577.78033"
       rx="32.605141"
       ry="19.872055"
       inkscape:label="red-cheek-l" />
    <path
       style="fill:none;fill-rule:evenodd;stroke:#000000;stroke-width:1.87794042;stroke-linecap:butt;stroke-linejoin:miter;stroke-miterlimit:4;stroke-dasharray:none;stroke-opacity:1"
       d="m 282.08293,406.38302 c 0,0 -103.10429,-22.5979 -129.29098,-41.24629"
       id="eyebrow-l"
       inkscape:connector-curvature="0"
       sodipodi:nodetypes="cc"
       inkscape:label="eyebrow-l" />
    <path
       style="fill:none;fill-rule:evenodd;stroke:#000000;stroke-width:2;stroke-linecap:butt;stroke-linejoin:miter;stroke-miterlimit:4;stroke-dasharray:none;stroke-opacity:1"
       d="m 267.86939,427.86995 c -18.42187,-7.20733 -86.55355,10.47802 -95.16966,35.83232"
       id="eyelid-fold-line-l"
       inkscape:connector-curvature="0"
       sodipodi:nodetypes="cc"
       inkscape:label="eyelid-fold-line-l" />
    <ellipse
       ry="19.550318"
       rx="32.077248"
       cy="577.78033"
       cx="-531.63208"
       id="red-cheek-r"
       style="fill:none;fill-opacity:1;stroke:#ff4600;stroke-width:1.11638451;stroke-miterlimit:4;stroke-dasharray:none;stroke-opacity:1"
       inkscape:label="red-cheek-r"
       transform="scale(-1,1)" />
    <path
       style="fill:none;fill-rule:evenodd;stroke:#da3d29;stroke-width:1.31698143px;stroke-linecap:butt;stroke-linejoin:miter;stroke-opacity:1"
       d="m 107.68342,206.449 c 18.4016,19.5517 71.81834,36.98957 104.54127,49.09548 27.46845,5.74258 54.58666,13.38054 82.16414,16.77706 48.2027,5.93678 96.97288,4.76499 145.47743,-0.19434 62.06823,-12.16491 144.87452,-25.67678 195.3801,-63.72269 l 8.66974,19.59565 c -37.2158,9.56794 -72.81341,17.63203 -108.25661,23.64302 -15.14894,2.56919 -29.31849,9.48565 -43.45152,11.60996 -39.98627,6.10792 -21.09607,3.94572 -53.44164,8.90325 -65.62245,10.05779 -163.67985,-8.13886 -221.54945,-15.29743 -37.29387,-12.08407 -95.19672,-15.05395 -121.415298,-27.17594 z"
       id="hair-highlight"
       inkscape:connector-curvature="0"
       sodipodi:nodetypes="ccscccscsccc"
       inkscape:label="hair-highlight" />
    <path
       style="fill:none;fill-rule:evenodd;stroke:#3ff9b5;stroke-width:2.63396287;stroke-linecap:butt;stroke-linejoin:miter;stroke-miterlimit:4;stroke-dasharray:none;stroke-opacity:1"
       d="m 375.89457,71.982581 c 6.08466,29.375739 43.21237,288.312689 13.77418,382.528039"
       id="hair-c-2"
       inkscape:connector-curvature="0"
       sodipodi:nodetypes="cc"
       inkscape:label="hair-c-2" />
    <ellipse
       inkscape:label="forehead-shadow"
       ry="55.062561"
       rx="106.81707"
       cy="284.36658"
       cx="368.99399"
       id="forehead-shadow"
       style="fill:none;fill-opacity:1;stroke:#da9437;stroke-width:1.31698143;stroke-miterlimit:4;stroke-dasharray:none;stroke-opacity:0.29299364" />
    <path
       inkscape:label="hair-r-2"
       sodipodi:nodetypes="cc"
       inkscape:connector-curvature="0"
       id="hair-r-2"
       d="m 457.74433,106.4086 c 126.51585,23.9887 177.70141,549.71217 61.81669,684.11357"
       style="fill:none;fill-rule:evenodd;stroke:#3ef9b5;stroke-width:2.63396287;stroke-linecap:butt;stroke-linejoin:miter;stroke-miterlimit:4;stroke-dasharray:none;stroke-opacity:1" />
    <path
       inkscape:connector-curvature="0"
       id="hair-r-0"
       d="M 373.80305,67.31887 C 465.26684,78.391909 617.31427,106.55754 625.504,413.01895"
       style="fill:none;fill-opacity:1;fill-rule:evenodd;stroke:#3ff9b5;stroke-width:2.63396287;stroke-linecap:butt;stroke-linejoin:miter;stroke-miterlimit:4;stroke-dasharray:none;stroke-opacity:1"
       sodipodi:nodetypes="cc"
       inkscape:label="hair-r-0" />
    <path
       inkscape:label="upper-lash-line-l"
       style="fill:#2e4458;fill-opacity:1;fill-rule:evenodd;stroke:none;stroke-width:2;stroke-linecap:butt;stroke-linejoin:miter;stroke-miterlimit:4;stroke-dasharray:none;stroke-opacity:0.67307691"
       d="m 292.13929,448.53703 c 0,0 -79.78323,-14.44035 -107.77394,42.04724 -6.46186,13.04057 -3.22787,30.2049 -3.22787,30.2049 0,0 -9.55019,-12.05435 -10.88924,-19.42693 4.69306,-28.44688 30.94132,-64.3454 108.17434,-62.36356 z"
       id="upper-lash-line-l"
       inkscape:connector-curvature="0"
       sodipodi:nodetypes="cscccc" />
    <g
       id="X-l"
       inkscape:label="X-l"
       style="fill:#545757;fill-opacity:1;stroke-width:2;stroke-miterlimit:4;stroke-dasharray:none"
       transform="matrix(1.2918993,0.07112749,0.05490828,-0.99730735,-23.224589,725.7077)">
      <path
         sodipodi:nodetypes="ccccc"
         inkscape:connector-curvature="0"
         id="path4283"
         d="m 93.000155,326.68472 -1.705932,4.21679 54.992927,153.35922 1.34912,-5.74993 z"
         style="fill:none;fill-opacity:1;fill-rule:evenodd;stroke:#000000;stroke-width:1.9789772;stroke-linecap:butt;stroke-linejoin:miter;stroke-miterlimit:4;stroke-dasharray:none;stroke-opacity:1" />
      <path
         sodipodi:nodetypes="ccccc"
         inkscape:connector-curvature="0"
         id="path4285"
         d="m 135.23286,335.70552 -0.46478,-8.15577 -39.752608,141.57963 1.267072,7.93642 z"
         style="fill:none;fill-opacity:1;fill-rule:evenodd;stroke:#000000;stroke-width:2;stroke-linecap:butt;stroke-linejoin:miter;stroke-miterlimit:4;stroke-dasharray:none;stroke-opacity:1" />
    </g>
    <g
       id="X-r"
       inkscape:label="X-r"
       transform="matrix(1.2831555,-0.07449835,-0.05788162,-0.9969498,-184.29014,802.69229)"
       style="stroke-width:2;stroke-miterlimit:4;stroke-dasharray:none">
      <path
         style="fill:none;fill-opacity:1;fill-rule:evenodd;stroke:#000000;stroke-width:1.89709115;stroke-linecap:butt;stroke-linejoin:miter;stroke-miterlimit:4;stroke-dasharray:none;stroke-opacity:1"
         d="m 646.23119,348.58394 1.58123,4.2305 -61.33508,169.87014 -1.25902,-5.76285 z"
         id="use4345"
         inkscape:connector-curvature="0"
         sodipodi:nodetypes="ccccc" />
      <path
         style="fill:none;fill-opacity:1;fill-rule:evenodd;stroke:#000000;stroke-width:2;stroke-linecap:butt;stroke-linejoin:miter;stroke-miterlimit:4;stroke-dasharray:none;stroke-opacity:1"
         d="m 601.33156,343.55054 0.46478,-8.15577 44.54377,157.08065 -1.26706,7.93642 z"
         id="use4353"
         inkscape:connector-curvature="0"
         sodipodi:nodetypes="ccccc" />
    </g>
    <path
       inkscape:label="hair-l-0"
       sodipodi:nodetypes="cc"
       style="fill:none;fill-opacity:1;fill-rule:evenodd;stroke:#3ff9b5;stroke-width:2.63396287;stroke-linecap:butt;stroke-linejoin:miter;stroke-miterlimit:4;stroke-dasharray:none;stroke-opacity:1"
       d="M 374.53595,67.31887 C 258.05584,76.736179 138.32131,102.38785 119.12374,412.0877"
       id="hair-l-0"
       inkscape:connector-curvature="0" />
    <path
       style="fill:none;fill-rule:evenodd;stroke:#3ef9b5;stroke-width:2.63396287;stroke-linecap:butt;stroke-linejoin:miter;stroke-miterlimit:4;stroke-dasharray:none;stroke-opacity:1"
       d="M 284.46167,106.4086 C 157.94582,130.3973 100.56352,531.35325 211.53922,794.23646"
       id="hair-l-2"
       inkscape:connector-curvature="0"
       sodipodi:nodetypes="cc"
       inkscape:label="hair-l-2" />
    <path
       sodipodi:nodetypes="cc"
       inkscape:connector-curvature="0"
       id="hair-l-1"
       d="M 364.85763,65.924347 C 7.0207453,95.729054 105.18981,463.67429 199.02192,997.65197"
       style="fill:none;fill-opacity:1;fill-rule:evenodd;stroke:#3ef9b5;stroke-width:2.63396287;stroke-linecap:butt;stroke-linejoin:miter;stroke-miterlimit:4;stroke-dasharray:none;stroke-opacity:1"
       inkscape:label="hair-l-1" />
    <path
       inkscape:label="hair-r-1"
       style="fill:none;fill-opacity:1;fill-rule:evenodd;stroke:#3ef9b5;stroke-width:2.63396287;stroke-linecap:butt;stroke-linejoin:miter;stroke-miterlimit:4;stroke-dasharray:none;stroke-opacity:1"
       d="M 372.43428,65.924347 C 725.00324,97.046035 632.1021,463.67429 538.26999,997.65197"
       id="hair-r-1"
       inkscape:connector-curvature="0"
       sodipodi:nodetypes="cc" />
    <path
       inkscape:label="sclera-r"
       sodipodi:nodetypes="ccccc"
       inkscape:connector-curvature="0"
       id="sclera-r"
       d="m 456.9932,440.09717 c 0,0 -15.61339,63.93648 4.45807,103.75519 14.17468,8.68971 40.53494,7.49957 40.53494,7.49957 28.73483,-2.98649 57.97702,-26.55889 58.68635,-51.56888 -6.54511,-41.20432 -44.72305,-54.24656 -103.67936,-59.68588 z"
       style="fill:#ffffff;fill-opacity:1;fill-rule:evenodd;stroke:#000000;stroke-width:2;stroke-linecap:butt;stroke-linejoin:miter;stroke-miterlimit:4;stroke-dasharray:none;stroke-opacity:1" />
    <path
       sodipodi:nodetypes="sssss"
       inkscape:connector-curvature="0"
       id="iris-r"
       d="m 454.98807,491.76714 c -4.48378,36.5567 10.07984,54.58442 31.8507,56.49471 21.77085,1.91029 40.80501,-9.01611 45.70569,-43.31468 4.988,-34.90974 -14.52971,-59.38657 -38.46975,-62.75702 -24.5764,-3.46002 -34.50975,12.26119 -39.08664,49.57699 z"
       style="fill:#3c93a9;fill-opacity:0.15568866;stroke:#000000;stroke-width:1.98001373;stroke-miterlimit:4;stroke-dasharray:none;stroke-opacity:0.64102568"
       inkscape:label="iris-r" />
    <path
       inkscape:label="eyelid-fold-line-l"
       sodipodi:nodetypes="cc"
       inkscape:connector-curvature="0"
       id="eyelid-fold-line-r"
       d="m 472.4347,429.36261 c 19.73254,-6.69438 83.48663,10.54966 93.677,34.33966"
       style="fill:none;fill-rule:evenodd;stroke:#000000;stroke-width:2;stroke-linecap:butt;stroke-linejoin:miter;stroke-miterlimit:4;stroke-dasharray:none;stroke-opacity:1" />
    <path
       sodipodi:nodetypes="cscccc"
       inkscape:connector-curvature="0"
       id="upper-lash-line-r"
       d="m 446.67214,448.53703 c 0,0 79.78323,-14.44035 107.77394,42.04724 6.46186,13.04057 3.22787,30.2049 3.22787,30.2049 0,0 9.55019,-12.05435 10.88924,-19.42693 -4.69306,-28.44688 -30.94132,-64.3454 -108.17434,-62.36356 z"
       style="fill:#2e4458;fill-opacity:1;fill-rule:evenodd;stroke:none;stroke-width:2;stroke-linecap:butt;stroke-linejoin:miter;stroke-miterlimit:4;stroke-dasharray:none;stroke-opacity:0.67307691"
       inkscape:label="upper-lash-line-r" />
    <path
       inkscape:label="eyebrow-r"
       sodipodi:nodetypes="cc"
       inkscape:connector-curvature="0"
       id="eyebrow-r"
       d="m 449.83041,406.38302 c 0,0 97.87902,-16.01895 129.29099,-41.24629"
       style="fill:none;fill-rule:evenodd;stroke:#000000;stroke-width:1.87794042;stroke-linecap:butt;stroke-linejoin:miter;stroke-miterlimit:4;stroke-dasharray:none;stroke-opacity:1" />
  </g>
</svg>
